<svg width="225" height="225" viewBox="0 0 225 225" fill="none" xmlns="http://www.w3.org/2000/svg">
<path d="M51.4754 102.421C54.6178 101.992 57.5167 104.181 57.9656 107.32C58.4144 110.46 56.2448 113.373 53.1083 113.843C49.9425 114.316 46.9962 112.122 46.5432 108.953C46.0902 105.785 48.3036 102.853 51.4754 102.421Z" fill="#7B5005"/>
<path d="M174.882 102.407C178.068 101.973 180.998 104.217 181.41 107.406C181.822 110.595 179.558 113.51 176.366 113.9C174.736 114.099 173.099 113.597 171.86 112.52C170.622 111.442 169.899 109.89 169.87 108.249C169.819 105.313 171.973 102.803 174.882 102.407Z" fill="#7B5005"/>
<path d="M92.5257 102.408C95.7071 101.98 98.6349 104.207 99.0726 107.387C99.5104 110.567 97.2931 113.502 94.1144 113.949C90.9214 114.399 87.9704 112.17 87.5307 108.975C87.091 105.781 89.3299 102.837 92.5257 102.408Z" fill="#7B5005"/>
<path d="M39.4404 75.0791C52.237 60.6375 77.2712 62.2286 94.3164 65.5713C94.6669 65.6401 109.975 63.479 112.692 63.3604C117.023 63.2203 125.701 63.4305 129.964 64.4619C136.182 65.9662 137.458 64.3072 143.125 63.8701C155.784 62.7751 173.855 62.6868 184.146 71.2139C199.164 83.6566 202.767 112.847 204.835 130.996C199.639 131.254 196.054 131.232 190.839 130.993C188.159 150.199 178.251 166.09 157.296 168.764C148.273 169.915 142.136 167.892 134.274 163.756C126.494 167.582 121.867 169.066 112.938 168.964C104.885 168.441 101.584 166.738 94.5986 162.98C92.3153 163.977 90.1234 165.255 87.7871 166.175C61.4152 176.556 39.0143 157.26 36.6895 130.971C31.7891 131.277 27.0874 131.019 22.2217 131.146C24.0154 113.691 27.9684 88.0262 39.4404 75.0791ZM122.589 71.2969C118.973 71.4189 115.373 71.2537 111.792 71.3701C102.429 71.7306 93.2827 72.9971 86.5811 80.2646C77.1327 90.511 74.4817 109.714 72.3037 123.222C76.5476 123.196 81.0981 123.085 85.3184 123.179C85.3968 129.096 85.4853 133.604 87.4883 139.305C91.2369 149.975 98.1223 157.912 109.311 160.636C116.052 161.746 121.451 160.684 127.712 158.14C121.15 151.426 116.741 140.218 115.941 130.965C113.027 131.109 110.459 131.203 107.546 131.176C106.234 131.164 102.77 131.038 101.639 131.166C103.928 111.547 107.26 84.9407 122.589 71.2969ZM178.767 77.1621C171.452 71.7009 159.249 70.9358 150.277 71.3613L145.886 71.5547C148.17 74.1756 150.758 77.5122 152.199 80.667C162.442 103.092 159.812 141.265 141.199 158.611C149.279 161.551 157.031 162.153 165.072 158.421C166.836 157.597 168.519 156.607 170.097 155.466C177.435 149.717 181.405 141.799 182.523 132.593C182.892 129.489 183.086 126.367 183.101 123.242C187.354 123.2 191.607 123.199 195.861 123.237C193.98 110.028 190.084 85.6098 178.767 77.1621ZM83.96 71.8418C78.9838 71.3967 75.2596 71.1633 70.2363 71.3545C60.8407 71.8718 51.6494 73.2718 45.0215 80.7705C36.5993 90.2995 32.9099 110.943 31.2988 123.243C34.9491 123.233 40.9952 123.392 44.4805 123.077C44.1823 134.401 46.2571 144.106 54.3174 152.638C57.7546 156.277 64.5423 160.796 69.748 160.735C77.0128 161.62 82.1166 160.188 88.7061 157.27C82.176 149.692 79.0194 140.946 77.7588 131.145C74.1527 131.23 66.3209 130.937 63.2793 131.231C65.4022 112.702 69.156 84.6169 83.96 71.8418ZM134.438 73.9648C134.375 73.9451 134.071 73.9681 133.986 73.9805C118.495 80.509 115.327 98.034 112.262 112.841C111.57 116.182 111.236 119.93 110.426 123.188L123.687 123.238C123.267 133.209 125.431 141.609 131.266 149.841C132.348 151.181 133.485 152.552 134.509 153.93C144.695 145.194 149.109 130.617 150.062 116.507C150.864 104.624 149.153 78.5737 134.438 73.9648Z" fill="#7B5005"/>
<path d="M132.198 102.43C135.36 101.74 138.479 103.754 139.151 106.919C139.823 110.084 137.793 113.192 134.624 113.848C131.48 114.498 128.4 112.486 127.733 109.345C127.066 106.204 129.061 103.114 132.198 102.43Z" fill="#7B5005"/>
</svg>
